<mxfile host="65bd71144e">
    <diagram id="MXggBVjKDTOXL-7zH1Gl" name="Page-1">
        <mxGraphModel dx="1501" dy="1158" grid="1" gridSize="10" guides="1" tooltips="1" connect="1" arrows="1" fold="1" page="1" pageScale="1" pageWidth="850" pageHeight="1100" math="0" shadow="0">
            <root>
                <mxCell id="0"/>
                <mxCell id="1" parent="0"/>
                <mxCell id="27" value="" style="group" vertex="1" connectable="0" parent="1">
                    <mxGeometry x="150" y="110" width="360" height="140" as="geometry"/>
                </mxCell>
                <mxCell id="3" value="" style="rounded=1;whiteSpace=wrap;html=1;fillColor=#fff2cc;strokeColor=#d6b656;" vertex="1" parent="27">
                    <mxGeometry x="190" y="81" width="60" height="20" as="geometry"/>
                </mxCell>
                <mxCell id="2" value="&lt;h1&gt;Heading&lt;/h1&gt;&lt;p&gt;Lorem ipsum dolor sit amet, consectetur adipisicing elit, sed do eiusmod tempor incididunt ut labore et dolore magna aliqua.&lt;/p&gt;" style="text;html=1;strokeColor=none;fillColor=none;spacing=5;spacingTop=-20;whiteSpace=wrap;overflow=hidden;rounded=0;" vertex="1" parent="27">
                    <mxGeometry x="121" y="20" width="190" height="120" as="geometry"/>
                </mxCell>
                <mxCell id="9" value="" style="group" vertex="1" connectable="0" parent="27">
                    <mxGeometry x="100" width="260" height="70" as="geometry"/>
                </mxCell>
                <mxCell id="4" value="" style="rounded=0;whiteSpace=wrap;html=1;strokeColor=none;fillColor=#A3A3A3;" vertex="1" parent="9">
                    <mxGeometry width="260" height="60" as="geometry"/>
                </mxCell>
                <mxCell id="8" value="" style="triangle;whiteSpace=wrap;html=1;rotation=90;strokeColor=none;fillColor=#A3A3A3;" vertex="1" parent="9">
                    <mxGeometry x="124.8207171314741" y="60" width="10.358565737051793" height="10" as="geometry"/>
                </mxCell>
                <mxCell id="5" value="- What is it? -" style="html=1;shadow=0;dashed=0;shape=mxgraph.bootstrap.rrect;rSize=5;fillColor=#ffffff;strokeColor=#CED4DA;align=left;spacing=15;fontSize=14;fontColor=#6C767D;" vertex="1" parent="9">
                    <mxGeometry x="10.358565737051793" y="15" width="207.17131474103584" height="30" as="geometry"/>
                </mxCell>
                <mxCell id="6" value="" style="shape=triangle;direction=south;fillColor=#343A40;strokeColor=none;perimeter=none;" vertex="1" parent="5">
                    <mxGeometry x="1" y="0.5" width="7" height="3" relative="1" as="geometry">
                        <mxPoint x="-17" y="-1" as="offset"/>
                    </mxGeometry>
                </mxCell>
                <mxCell id="10" value="x" style="rounded=0;whiteSpace=wrap;html=1;fillColor=#f5f5f5;strokeColor=#666666;fontColor=#333333;" vertex="1" parent="9">
                    <mxGeometry x="220" y="15" width="30" height="30" as="geometry"/>
                </mxCell>
                <mxCell id="16" value="1" style="ellipse;whiteSpace=wrap;html=1;aspect=fixed;fillColor=#d5e8d4;strokeColor=#82b366;" vertex="1" parent="27">
                    <mxGeometry y="51" width="30" height="30" as="geometry"/>
                </mxCell>
                <mxCell id="28" value="" style="group" vertex="1" connectable="0" parent="1">
                    <mxGeometry x="150" y="290" width="360" height="180" as="geometry"/>
                </mxCell>
                <mxCell id="17" value="" style="rounded=1;whiteSpace=wrap;html=1;fillColor=#fff2cc;strokeColor=#d6b656;" vertex="1" parent="28">
                    <mxGeometry x="190" y="81" width="60" height="20" as="geometry"/>
                </mxCell>
                <mxCell id="18" value="&lt;h1&gt;Heading&lt;/h1&gt;&lt;p&gt;Lorem ipsum dolor sit amet, consectetur adipisicing elit, sed do eiusmod tempor incididunt ut labore et dolore magna aliqua.&lt;/p&gt;" style="text;html=1;strokeColor=none;fillColor=none;spacing=5;spacingTop=-20;whiteSpace=wrap;overflow=hidden;rounded=0;" vertex="1" parent="28">
                    <mxGeometry x="121" y="20" width="190" height="120" as="geometry"/>
                </mxCell>
                <mxCell id="19" value="" style="group" vertex="1" connectable="0" parent="28">
                    <mxGeometry x="100" width="260" height="180" as="geometry"/>
                </mxCell>
                <mxCell id="20" value="" style="rounded=0;whiteSpace=wrap;html=1;strokeColor=none;fillColor=#A3A3A3;" vertex="1" parent="19">
                    <mxGeometry width="260" height="60" as="geometry"/>
                </mxCell>
                <mxCell id="21" value="" style="triangle;whiteSpace=wrap;html=1;rotation=90;strokeColor=none;fillColor=#A3A3A3;" vertex="1" parent="19">
                    <mxGeometry x="124.8207171314741" y="60" width="10.358565737051793" height="10" as="geometry"/>
                </mxCell>
                <mxCell id="22" value="- What is it? -&lt;br&gt;&lt;font color=&quot;#0d0d0d&quot;&gt;Parable&lt;br&gt;Person&lt;br&gt;Alternative name&lt;br&gt;Locality&lt;/font&gt;" style="html=1;shadow=0;dashed=0;shape=mxgraph.bootstrap.rrect;rSize=5;fillColor=#ffffff;strokeColor=#CED4DA;align=left;spacing=15;fontSize=14;fontColor=#6C767D;" vertex="1" parent="19">
                    <mxGeometry x="10.36" y="15" width="207.17" height="95" as="geometry"/>
                </mxCell>
                <mxCell id="23" value="" style="shape=triangle;direction=south;fillColor=#343A40;strokeColor=none;perimeter=none;" vertex="1" parent="22">
                    <mxGeometry x="1" y="0.5" width="7" height="3" relative="1" as="geometry">
                        <mxPoint x="-17" y="-34" as="offset"/>
                    </mxGeometry>
                </mxCell>
                <mxCell id="25" value="x" style="rounded=0;whiteSpace=wrap;html=1;fillColor=#f5f5f5;strokeColor=#666666;fontColor=#333333;" vertex="1" parent="19">
                    <mxGeometry x="220" y="15" width="30" height="30" as="geometry"/>
                </mxCell>
                <mxCell id="26" value="2" style="ellipse;whiteSpace=wrap;html=1;aspect=fixed;fillColor=#d5e8d4;strokeColor=#82b366;" vertex="1" parent="28">
                    <mxGeometry y="51" width="30" height="30" as="geometry"/>
                </mxCell>
                <mxCell id="39" value="" style="group" vertex="1" connectable="0" parent="1">
                    <mxGeometry x="150" y="470" width="430" height="140" as="geometry"/>
                </mxCell>
                <mxCell id="40" value="" style="rounded=1;whiteSpace=wrap;html=1;fillColor=#fff2cc;strokeColor=#d6b656;" vertex="1" parent="39">
                    <mxGeometry x="190" y="81" width="60" height="20" as="geometry"/>
                </mxCell>
                <mxCell id="41" value="&lt;h1&gt;Heading&lt;/h1&gt;&lt;p&gt;Lorem ipsum dolor sit amet, consectetur adipisicing elit, sed do eiusmod tempor incididunt ut labore et dolore magna aliqua.&lt;/p&gt;" style="text;html=1;strokeColor=none;fillColor=none;spacing=5;spacingTop=-20;whiteSpace=wrap;overflow=hidden;rounded=0;" vertex="1" parent="39">
                    <mxGeometry x="121" y="20" width="190" height="120" as="geometry"/>
                </mxCell>
                <mxCell id="42" value="" style="group" vertex="1" connectable="0" parent="39">
                    <mxGeometry x="100" width="330" height="70" as="geometry"/>
                </mxCell>
                <mxCell id="43" value="" style="rounded=0;whiteSpace=wrap;html=1;strokeColor=none;fillColor=#A3A3A3;" vertex="1" parent="42">
                    <mxGeometry width="290" height="60" as="geometry"/>
                </mxCell>
                <mxCell id="44" value="" style="triangle;whiteSpace=wrap;html=1;rotation=90;strokeColor=none;fillColor=#A3A3A3;" vertex="1" parent="42">
                    <mxGeometry x="124.8207171314741" y="60" width="10.358565737051793" height="10" as="geometry"/>
                </mxCell>
                <mxCell id="45" value="&lt;font color=&quot;#000000&quot;&gt;Parable&lt;/font&gt;" style="html=1;shadow=0;dashed=0;shape=mxgraph.bootstrap.rrect;rSize=5;fillColor=#ffffff;strokeColor=#CED4DA;align=left;spacing=15;fontSize=14;fontColor=#6C767D;" vertex="1" parent="42">
                    <mxGeometry x="10.358565737051793" y="15" width="207.17131474103584" height="30" as="geometry"/>
                </mxCell>
                <mxCell id="46" value="" style="shape=triangle;direction=south;fillColor=#343A40;strokeColor=none;perimeter=none;" vertex="1" parent="45">
                    <mxGeometry x="1" y="0.5" width="7" height="3" relative="1" as="geometry">
                        <mxPoint x="-17" y="-1" as="offset"/>
                    </mxGeometry>
                </mxCell>
                <mxCell id="47" value="x" style="rounded=0;whiteSpace=wrap;html=1;fillColor=#f5f5f5;strokeColor=#666666;fontColor=#333333;" vertex="1" parent="42">
                    <mxGeometry x="220" y="15" width="30" height="30" as="geometry"/>
                </mxCell>
                <mxCell id="50" value="save" style="rounded=0;whiteSpace=wrap;html=1;fillColor=#f5f5f5;strokeColor=#666666;fontColor=#333333;" vertex="1" parent="42">
                    <mxGeometry x="256" y="15" width="30" height="30" as="geometry"/>
                </mxCell>
                <mxCell id="48" value="3" style="ellipse;whiteSpace=wrap;html=1;aspect=fixed;fillColor=#d5e8d4;strokeColor=#82b366;" vertex="1" parent="39">
                    <mxGeometry y="51" width="30" height="30" as="geometry"/>
                </mxCell>
                <mxCell id="51" value="Simple RDF Class describing the type of text" style="text;html=1;strokeColor=none;fillColor=none;align=center;verticalAlign=middle;whiteSpace=wrap;rounded=0;fontSize=24;" vertex="1" parent="1">
                    <mxGeometry x="120" y="40" width="530" height="20" as="geometry"/>
                </mxCell>
                <mxCell id="52" value="" style="group" vertex="1" connectable="0" parent="1">
                    <mxGeometry x="830" y="110" width="360" height="140" as="geometry"/>
                </mxCell>
                <mxCell id="53" value="" style="rounded=1;whiteSpace=wrap;html=1;fillColor=#fff2cc;strokeColor=#d6b656;" vertex="1" parent="52">
                    <mxGeometry x="190" y="81" width="60" height="20" as="geometry"/>
                </mxCell>
                <mxCell id="54" value="&lt;h1&gt;Heading&lt;/h1&gt;&lt;p&gt;Lorem ipsum dolor sit amet, consectetur adipisicing elit, sed do eiusmod tempor incididunt ut labore et dolore magna aliqua.&lt;/p&gt;" style="text;html=1;strokeColor=none;fillColor=none;spacing=5;spacingTop=-20;whiteSpace=wrap;overflow=hidden;rounded=0;" vertex="1" parent="52">
                    <mxGeometry x="121" y="20" width="190" height="120" as="geometry"/>
                </mxCell>
                <mxCell id="55" value="" style="group" vertex="1" connectable="0" parent="52">
                    <mxGeometry x="100" width="260" height="70" as="geometry"/>
                </mxCell>
                <mxCell id="56" value="" style="rounded=0;whiteSpace=wrap;html=1;strokeColor=none;fillColor=#A3A3A3;" vertex="1" parent="55">
                    <mxGeometry width="260" height="60" as="geometry"/>
                </mxCell>
                <mxCell id="57" value="" style="triangle;whiteSpace=wrap;html=1;rotation=90;strokeColor=none;fillColor=#A3A3A3;" vertex="1" parent="55">
                    <mxGeometry x="124.8207171314741" y="60" width="10.358565737051793" height="10" as="geometry"/>
                </mxCell>
                <mxCell id="58" value="- What is it? -" style="html=1;shadow=0;dashed=0;shape=mxgraph.bootstrap.rrect;rSize=5;fillColor=#ffffff;strokeColor=#CED4DA;align=left;spacing=15;fontSize=14;fontColor=#6C767D;" vertex="1" parent="55">
                    <mxGeometry x="10.358565737051793" y="15" width="207.17131474103584" height="30" as="geometry"/>
                </mxCell>
                <mxCell id="59" value="" style="shape=triangle;direction=south;fillColor=#343A40;strokeColor=none;perimeter=none;" vertex="1" parent="58">
                    <mxGeometry x="1" y="0.5" width="7" height="3" relative="1" as="geometry">
                        <mxPoint x="-17" y="-1" as="offset"/>
                    </mxGeometry>
                </mxCell>
                <mxCell id="60" value="x" style="rounded=0;whiteSpace=wrap;html=1;fillColor=#f5f5f5;strokeColor=#666666;fontColor=#333333;" vertex="1" parent="55">
                    <mxGeometry x="220" y="15" width="30" height="30" as="geometry"/>
                </mxCell>
                <mxCell id="61" value="1" style="ellipse;whiteSpace=wrap;html=1;aspect=fixed;fillColor=#d5e8d4;strokeColor=#82b366;" vertex="1" parent="52">
                    <mxGeometry y="51" width="30" height="30" as="geometry"/>
                </mxCell>
                <mxCell id="62" value="" style="group" vertex="1" connectable="0" parent="1">
                    <mxGeometry x="830" y="290" width="360" height="180" as="geometry"/>
                </mxCell>
                <mxCell id="63" value="" style="rounded=1;whiteSpace=wrap;html=1;fillColor=#fff2cc;strokeColor=#d6b656;" vertex="1" parent="62">
                    <mxGeometry x="190" y="81" width="60" height="20" as="geometry"/>
                </mxCell>
                <mxCell id="64" value="&lt;h1&gt;Heading&lt;/h1&gt;&lt;p&gt;Lorem ipsum dolor sit amet, consectetur adipisicing elit, sed do eiusmod tempor incididunt ut labore et dolore magna aliqua.&lt;/p&gt;" style="text;html=1;strokeColor=none;fillColor=none;spacing=5;spacingTop=-20;whiteSpace=wrap;overflow=hidden;rounded=0;" vertex="1" parent="62">
                    <mxGeometry x="121" y="20" width="190" height="120" as="geometry"/>
                </mxCell>
                <mxCell id="65" value="" style="group" vertex="1" connectable="0" parent="62">
                    <mxGeometry x="100" width="260" height="180" as="geometry"/>
                </mxCell>
                <mxCell id="66" value="" style="rounded=0;whiteSpace=wrap;html=1;strokeColor=none;fillColor=#A3A3A3;" vertex="1" parent="65">
                    <mxGeometry width="260" height="60" as="geometry"/>
                </mxCell>
                <mxCell id="67" value="" style="triangle;whiteSpace=wrap;html=1;rotation=90;strokeColor=none;fillColor=#A3A3A3;" vertex="1" parent="65">
                    <mxGeometry x="124.8207171314741" y="60" width="10.358565737051793" height="10" as="geometry"/>
                </mxCell>
                <mxCell id="68" value="- What is it? -&lt;br&gt;&lt;font color=&quot;#0d0d0d&quot;&gt;Parable&lt;br&gt;Person&lt;br&gt;Alternative name&lt;br&gt;Locality&lt;/font&gt;" style="html=1;shadow=0;dashed=0;shape=mxgraph.bootstrap.rrect;rSize=5;fillColor=#ffffff;strokeColor=#CED4DA;align=left;spacing=15;fontSize=14;fontColor=#6C767D;" vertex="1" parent="65">
                    <mxGeometry x="10.36" y="15" width="207.17" height="95" as="geometry"/>
                </mxCell>
                <mxCell id="69" value="" style="shape=triangle;direction=south;fillColor=#343A40;strokeColor=none;perimeter=none;" vertex="1" parent="68">
                    <mxGeometry x="1" y="0.5" width="7" height="3" relative="1" as="geometry">
                        <mxPoint x="-17" y="-34" as="offset"/>
                    </mxGeometry>
                </mxCell>
                <mxCell id="70" value="x" style="rounded=0;whiteSpace=wrap;html=1;fillColor=#f5f5f5;strokeColor=#666666;fontColor=#333333;" vertex="1" parent="65">
                    <mxGeometry x="220" y="15" width="30" height="30" as="geometry"/>
                </mxCell>
                <mxCell id="71" value="2" style="ellipse;whiteSpace=wrap;html=1;aspect=fixed;fillColor=#d5e8d4;strokeColor=#82b366;" vertex="1" parent="62">
                    <mxGeometry y="51" width="30" height="30" as="geometry"/>
                </mxCell>
                <mxCell id="72" value="" style="group" vertex="1" connectable="0" parent="1">
                    <mxGeometry x="830" y="470" width="430" height="230" as="geometry"/>
                </mxCell>
                <mxCell id="73" value="" style="rounded=1;whiteSpace=wrap;html=1;fillColor=#fff2cc;strokeColor=#d6b656;" vertex="1" parent="72">
                    <mxGeometry x="190" y="81" width="60" height="20" as="geometry"/>
                </mxCell>
                <mxCell id="74" value="&lt;h1&gt;Heading&lt;/h1&gt;&lt;p&gt;Lorem ipsum dolor sit amet, consectetur adipisicing elit, sed do eiusmod tempor incididunt ut labore et dolore magna aliqua.&lt;/p&gt;" style="text;html=1;strokeColor=none;fillColor=none;spacing=5;spacingTop=-20;whiteSpace=wrap;overflow=hidden;rounded=0;" vertex="1" parent="72">
                    <mxGeometry x="121" y="20" width="190" height="120" as="geometry"/>
                </mxCell>
                <mxCell id="75" value="" style="group" vertex="1" connectable="0" parent="72">
                    <mxGeometry x="100" width="330" height="230" as="geometry"/>
                </mxCell>
                <mxCell id="76" value="" style="rounded=0;whiteSpace=wrap;html=1;strokeColor=none;fillColor=#A3A3A3;" vertex="1" parent="75">
                    <mxGeometry width="330" height="230" as="geometry"/>
                </mxCell>
                <mxCell id="78" value="&lt;font color=&quot;#000000&quot;&gt;Person&lt;/font&gt;" style="html=1;shadow=0;dashed=0;shape=mxgraph.bootstrap.rrect;rSize=5;fillColor=#ffffff;strokeColor=#CED4DA;align=left;spacing=15;fontSize=14;fontColor=#6C767D;" vertex="1" parent="75">
                    <mxGeometry x="10.358565737051793" y="15" width="207.17131474103584" height="30" as="geometry"/>
                </mxCell>
                <mxCell id="79" value="" style="shape=triangle;direction=south;fillColor=#343A40;strokeColor=none;perimeter=none;" vertex="1" parent="78">
                    <mxGeometry x="1" y="0.5" width="7" height="3" relative="1" as="geometry">
                        <mxPoint x="-17" y="-1" as="offset"/>
                    </mxGeometry>
                </mxCell>
                <mxCell id="80" value="x" style="rounded=0;whiteSpace=wrap;html=1;fillColor=#f5f5f5;strokeColor=#666666;fontColor=#333333;" vertex="1" parent="75">
                    <mxGeometry x="250" y="15" width="30" height="30" as="geometry"/>
                </mxCell>
                <mxCell id="84" value="&lt;font color=&quot;#333333&quot;&gt;save&lt;/font&gt;" style="rounded=0;whiteSpace=wrap;html=1;fillColor=#f5f5f5;strokeColor=#666666;fontColor=#D1D1D1;" vertex="1" parent="75">
                    <mxGeometry x="290" y="15" width="30" height="30" as="geometry"/>
                </mxCell>
                <mxCell id="87" value="&lt;font color=&quot;#030303&quot; style=&quot;font-size: 12px&quot;&gt;Name*&lt;/font&gt;" style="rounded=0;whiteSpace=wrap;html=1;fontSize=12;fontColor=#D1D1D1;labelBackgroundColor=none;labelBorderColor=none;fillColor=#FFFFFF;align=left;" vertex="1" parent="75">
                    <mxGeometry x="10.36" y="65" width="209.64" height="30" as="geometry"/>
                </mxCell>
                <mxCell id="88" value="&lt;font color=&quot;#030303&quot; style=&quot;font-size: 12px&quot;&gt;Identifier*&lt;/font&gt;" style="rounded=0;whiteSpace=wrap;html=1;fontSize=12;fontColor=#D1D1D1;labelBackgroundColor=none;labelBorderColor=none;fillColor=#FFFFFF;align=left;" vertex="1" parent="75">
                    <mxGeometry x="10.36" y="110" width="209.64" height="30" as="geometry"/>
                </mxCell>
                <mxCell id="89" value="&lt;font color=&quot;#030303&quot; style=&quot;font-size: 12px&quot;&gt;Locality&lt;/font&gt;" style="rounded=0;whiteSpace=wrap;html=1;fontSize=12;fontColor=#D1D1D1;labelBackgroundColor=none;labelBorderColor=none;fillColor=#FFFFFF;align=left;" vertex="1" parent="75">
                    <mxGeometry x="10.36" y="150" width="209.64" height="30" as="geometry"/>
                </mxCell>
                <mxCell id="90" value="&lt;font color=&quot;#030303&quot; style=&quot;font-size: 12px&quot;&gt;Gender&lt;/font&gt;" style="rounded=0;whiteSpace=wrap;html=1;fontSize=12;fontColor=#D1D1D1;labelBackgroundColor=none;labelBorderColor=none;fillColor=#FFFFFF;align=left;" vertex="1" parent="75">
                    <mxGeometry x="10.36" y="190" width="209.64" height="30" as="geometry"/>
                </mxCell>
                <mxCell id="82" value="3" style="ellipse;whiteSpace=wrap;html=1;aspect=fixed;fillColor=#d5e8d4;strokeColor=#82b366;" vertex="1" parent="72">
                    <mxGeometry y="51" width="30" height="30" as="geometry"/>
                </mxCell>
                <mxCell id="83" value="RDF Class describing the type of text with form" style="text;html=1;strokeColor=none;fillColor=none;align=center;verticalAlign=middle;whiteSpace=wrap;rounded=0;fontSize=24;" vertex="1" parent="1">
                    <mxGeometry x="800" y="40" width="530" height="20" as="geometry"/>
                </mxCell>
                <mxCell id="91" value="" style="group" vertex="1" connectable="0" parent="1">
                    <mxGeometry x="1480" y="110" width="360" height="140" as="geometry"/>
                </mxCell>
                <mxCell id="92" value="" style="rounded=1;whiteSpace=wrap;html=1;fillColor=#fff2cc;strokeColor=#d6b656;" vertex="1" parent="91">
                    <mxGeometry x="190" y="81" width="60" height="20" as="geometry"/>
                </mxCell>
                <mxCell id="93" value="&lt;h1&gt;Heading&lt;/h1&gt;&lt;p&gt;Lorem ipsum dolor sit amet, consectetur adipisicing elit, sed do eiusmod tempor incididunt ut labore et dolore magna aliqua.&lt;/p&gt;" style="text;html=1;strokeColor=none;fillColor=none;spacing=5;spacingTop=-20;whiteSpace=wrap;overflow=hidden;rounded=0;" vertex="1" parent="91">
                    <mxGeometry x="121" y="20" width="190" height="120" as="geometry"/>
                </mxCell>
                <mxCell id="94" value="" style="group" vertex="1" connectable="0" parent="91">
                    <mxGeometry x="100" width="260" height="70" as="geometry"/>
                </mxCell>
                <mxCell id="95" value="" style="rounded=0;whiteSpace=wrap;html=1;strokeColor=none;fillColor=#A3A3A3;" vertex="1" parent="94">
                    <mxGeometry width="260" height="60" as="geometry"/>
                </mxCell>
                <mxCell id="96" value="" style="triangle;whiteSpace=wrap;html=1;rotation=90;strokeColor=none;fillColor=#A3A3A3;" vertex="1" parent="94">
                    <mxGeometry x="124.8207171314741" y="60" width="10.358565737051793" height="10" as="geometry"/>
                </mxCell>
                <mxCell id="97" value="- What is it? -" style="html=1;shadow=0;dashed=0;shape=mxgraph.bootstrap.rrect;rSize=5;fillColor=#ffffff;strokeColor=#CED4DA;align=left;spacing=15;fontSize=14;fontColor=#6C767D;" vertex="1" parent="94">
                    <mxGeometry x="10.358565737051793" y="15" width="207.17131474103584" height="30" as="geometry"/>
                </mxCell>
                <mxCell id="98" value="" style="shape=triangle;direction=south;fillColor=#343A40;strokeColor=none;perimeter=none;" vertex="1" parent="97">
                    <mxGeometry x="1" y="0.5" width="7" height="3" relative="1" as="geometry">
                        <mxPoint x="-17" y="-1" as="offset"/>
                    </mxGeometry>
                </mxCell>
                <mxCell id="99" value="x" style="rounded=0;whiteSpace=wrap;html=1;fillColor=#f5f5f5;strokeColor=#666666;fontColor=#333333;" vertex="1" parent="94">
                    <mxGeometry x="220" y="15" width="30" height="30" as="geometry"/>
                </mxCell>
                <mxCell id="100" value="1" style="ellipse;whiteSpace=wrap;html=1;aspect=fixed;fillColor=#d5e8d4;strokeColor=#82b366;" vertex="1" parent="91">
                    <mxGeometry y="51" width="30" height="30" as="geometry"/>
                </mxCell>
                <mxCell id="101" value="" style="group" vertex="1" connectable="0" parent="1">
                    <mxGeometry x="1480" y="290" width="360" height="180" as="geometry"/>
                </mxCell>
                <mxCell id="102" value="" style="rounded=1;whiteSpace=wrap;html=1;fillColor=#fff2cc;strokeColor=#d6b656;" vertex="1" parent="101">
                    <mxGeometry x="190" y="81" width="60" height="20" as="geometry"/>
                </mxCell>
                <mxCell id="103" value="&lt;h1&gt;Heading&lt;/h1&gt;&lt;p&gt;Lorem ipsum dolor sit amet, consectetur adipisicing elit, sed do eiusmod tempor incididunt ut labore et dolore magna aliqua.&lt;/p&gt;" style="text;html=1;strokeColor=none;fillColor=none;spacing=5;spacingTop=-20;whiteSpace=wrap;overflow=hidden;rounded=0;" vertex="1" parent="101">
                    <mxGeometry x="121" y="20" width="190" height="120" as="geometry"/>
                </mxCell>
                <mxCell id="104" value="" style="group" vertex="1" connectable="0" parent="101">
                    <mxGeometry x="100" width="260" height="180" as="geometry"/>
                </mxCell>
                <mxCell id="105" value="" style="rounded=0;whiteSpace=wrap;html=1;strokeColor=none;fillColor=#A3A3A3;" vertex="1" parent="104">
                    <mxGeometry width="260" height="60" as="geometry"/>
                </mxCell>
                <mxCell id="106" value="" style="triangle;whiteSpace=wrap;html=1;rotation=90;strokeColor=none;fillColor=#A3A3A3;" vertex="1" parent="104">
                    <mxGeometry x="124.8207171314741" y="60" width="10.358565737051793" height="10" as="geometry"/>
                </mxCell>
                <mxCell id="107" value="- What is it? -&lt;br&gt;&lt;font color=&quot;#0d0d0d&quot;&gt;Parable&lt;br&gt;Person&lt;br&gt;Alternative name&lt;br&gt;Locality&lt;/font&gt;" style="html=1;shadow=0;dashed=0;shape=mxgraph.bootstrap.rrect;rSize=5;fillColor=#ffffff;strokeColor=#CED4DA;align=left;spacing=15;fontSize=14;fontColor=#6C767D;" vertex="1" parent="104">
                    <mxGeometry x="10.36" y="15" width="207.17" height="95" as="geometry"/>
                </mxCell>
                <mxCell id="108" value="" style="shape=triangle;direction=south;fillColor=#343A40;strokeColor=none;perimeter=none;" vertex="1" parent="107">
                    <mxGeometry x="1" y="0.5" width="7" height="3" relative="1" as="geometry">
                        <mxPoint x="-17" y="-34" as="offset"/>
                    </mxGeometry>
                </mxCell>
                <mxCell id="109" value="x" style="rounded=0;whiteSpace=wrap;html=1;fillColor=#f5f5f5;strokeColor=#666666;fontColor=#333333;" vertex="1" parent="104">
                    <mxGeometry x="220" y="15" width="30" height="30" as="geometry"/>
                </mxCell>
                <mxCell id="110" value="2" style="ellipse;whiteSpace=wrap;html=1;aspect=fixed;fillColor=#d5e8d4;strokeColor=#82b366;" vertex="1" parent="101">
                    <mxGeometry y="51" width="30" height="30" as="geometry"/>
                </mxCell>
                <mxCell id="111" value="" style="group" vertex="1" connectable="0" parent="1">
                    <mxGeometry x="1480" y="470" width="430" height="140" as="geometry"/>
                </mxCell>
                <mxCell id="112" value="" style="rounded=1;whiteSpace=wrap;html=1;fillColor=#fff2cc;strokeColor=#d6b656;" vertex="1" parent="111">
                    <mxGeometry x="190" y="81" width="60" height="20" as="geometry"/>
                </mxCell>
                <mxCell id="113" value="&lt;h1&gt;Heading&lt;/h1&gt;&lt;p&gt;Lorem ipsum dolor sit amet, consectetur adipisicing elit, sed do eiusmod tempor incididunt ut labore et dolore magna aliqua.&lt;/p&gt;" style="text;html=1;strokeColor=none;fillColor=none;spacing=5;spacingTop=-20;whiteSpace=wrap;overflow=hidden;rounded=0;" vertex="1" parent="111">
                    <mxGeometry x="121" y="20" width="190" height="120" as="geometry"/>
                </mxCell>
                <mxCell id="114" value="" style="group" vertex="1" connectable="0" parent="111">
                    <mxGeometry x="100" width="330" height="110" as="geometry"/>
                </mxCell>
                <mxCell id="115" value="" style="rounded=0;whiteSpace=wrap;html=1;strokeColor=none;fillColor=#A3A3A3;" vertex="1" parent="114">
                    <mxGeometry width="290" height="110" as="geometry"/>
                </mxCell>
                <mxCell id="116" value="" style="triangle;whiteSpace=wrap;html=1;rotation=90;strokeColor=none;fillColor=#A3A3A3;" vertex="1" parent="114">
                    <mxGeometry x="124.8207171314741" y="60" width="10.358565737051793" height="10" as="geometry"/>
                </mxCell>
                <mxCell id="117" value="&lt;font color=&quot;#000000&quot;&gt;Alternative name&lt;/font&gt;" style="html=1;shadow=0;dashed=0;shape=mxgraph.bootstrap.rrect;rSize=5;fillColor=#ffffff;strokeColor=#CED4DA;align=left;spacing=15;fontSize=14;fontColor=#6C767D;" vertex="1" parent="114">
                    <mxGeometry x="10.358565737051793" y="15" width="207.17131474103584" height="30" as="geometry"/>
                </mxCell>
                <mxCell id="118" value="" style="shape=triangle;direction=south;fillColor=#343A40;strokeColor=none;perimeter=none;" vertex="1" parent="117">
                    <mxGeometry x="1" y="0.5" width="7" height="3" relative="1" as="geometry">
                        <mxPoint x="-17" y="-1" as="offset"/>
                    </mxGeometry>
                </mxCell>
                <mxCell id="119" value="x" style="rounded=0;whiteSpace=wrap;html=1;fillColor=#f5f5f5;strokeColor=#666666;fontColor=#333333;" vertex="1" parent="114">
                    <mxGeometry x="220" y="15" width="30" height="30" as="geometry"/>
                </mxCell>
                <mxCell id="120" value="save" style="rounded=0;whiteSpace=wrap;html=1;fillColor=#f5f5f5;strokeColor=#666666;fontColor=#333333;" vertex="1" parent="114">
                    <mxGeometry x="256" y="15" width="30" height="30" as="geometry"/>
                </mxCell>
                <mxCell id="123" value="&lt;font color=&quot;#000000&quot;&gt;- Click on person or search -&lt;/font&gt;" style="html=1;shadow=0;dashed=0;shape=mxgraph.bootstrap.rrect;rSize=5;fillColor=#ffffff;strokeColor=#CED4DA;align=left;spacing=15;fontSize=14;fontColor=#6C767D;" vertex="1" parent="114">
                    <mxGeometry x="12.83" y="65" width="217.17" height="30" as="geometry"/>
                </mxCell>
                <mxCell id="124" value="" style="shape=triangle;direction=south;fillColor=#343A40;strokeColor=none;perimeter=none;" vertex="1" parent="123">
                    <mxGeometry x="1" y="0.5" width="7" height="3" relative="1" as="geometry">
                        <mxPoint x="-17" y="-1" as="offset"/>
                    </mxGeometry>
                </mxCell>
                <mxCell id="121" value="3" style="ellipse;whiteSpace=wrap;html=1;aspect=fixed;fillColor=#d5e8d4;strokeColor=#82b366;" vertex="1" parent="111">
                    <mxGeometry y="51" width="30" height="30" as="geometry"/>
                </mxCell>
                <mxCell id="122" value="RDF Property describing something about a subject" style="text;html=1;strokeColor=none;fillColor=none;align=center;verticalAlign=middle;whiteSpace=wrap;rounded=0;fontSize=24;" vertex="1" parent="1">
                    <mxGeometry x="1450" y="40" width="590" height="20" as="geometry"/>
                </mxCell>
                <mxCell id="125" value="&lt;h1&gt;Every created identifier should result in a namespaced identifier. Namespaced by the book.&lt;/h1&gt;&lt;div&gt;&lt;br&gt;&lt;/div&gt;&lt;div&gt;The selection poup should soley work by descriptive data in the ontology.&lt;/div&gt;&lt;div&gt;That way others can add more predicates and describe ther properties.&lt;/div&gt;" style="text;html=1;strokeColor=none;fillColor=none;spacing=5;spacingTop=-20;whiteSpace=wrap;overflow=hidden;rounded=0;labelBackgroundColor=none;fontSize=12;align=left;fontColor=#333333;" vertex="1" parent="1">
                    <mxGeometry x="880" y="880" width="620" height="150" as="geometry"/>
                </mxCell>
            </root>
        </mxGraphModel>
    </diagram>
</mxfile>